<svg xmlns="http://www.w3.org/2000/svg" height="24" viewBox="0 96 960 960" width="24"><path d="m240.462 161.463 61.384-60.537 353.153 353.153q25.077 25.077 25.077 57.615t-25.077 57.615L453.923 769.154q-23.692 23.692-56.73 24.192t-57.73-24.192L138.387 569.309q-25.077-25.077-25.077-57.615t25.077-57.615L336.309 257.31l-95.847-95.847Zm156.616 156.616L209.77 502.616q-3.923 3.924-3.5 5.039.423 1.116.423 3.424h378q0-4.308-.577-5.424-.577-1.115-2.501-3.039L397.078 318.079Zm370.46 481.768q-35.154 0-59.577-24.423-24.422-24.423-24.422-59.576 0-24.462 13.461-49.192 13.461-24.731 29.154-46.038 10.23-13.231 19.576-25.692 9.346-12.462 21.808-25.692 12.461 13.23 21.807 25.692 9.346 12.461 19.577 25.692 15.692 21.307 29.154 46.038 13.461 24.73 13.461 49.192 0 35.153-24.423 59.576-24.423 24.423-59.576 24.423ZM72 1088V916.003h816V1088H72Z"/></svg>